<?xml version="1.0" encoding="UTF-8" standalone="no"?>
<svg
   xmlns:dc="http://purl.org/dc/elements/1.1/"
   xmlns:cc="http://creativecommons.org/ns#"
   xmlns:rdf="http://www.w3.org/1999/02/22-rdf-syntax-ns#"
   xmlns:svg="http://www.w3.org/2000/svg"
   xmlns="http://www.w3.org/2000/svg"
   viewBox="0 0 153.33333 634.66669"
   height="634.66669"
   width="153.33333"
   xml:space="preserve"
   id="svg2"
   version="1.1"><metadata
     id="metadata8"><rdf:RDF><cc:Work
         rdf:about=""><dc:format>image/svg+xml</dc:format><dc:type
           rdf:resource="http://purl.org/dc/dcmitype/StillImage" /></cc:Work></rdf:RDF></metadata><defs
     id="defs6" /><g
     transform="matrix(1.3333333,0,0,1.3333333,0,1.92e-5)"
     id="g10"><g
       id="g12"><path
         id="path14"
         style="fill:#ffffff;fill-opacity:1;fill-rule:nonzero;stroke:none"
         d="M 0,0 H 115 V 476 H 0 Z" /><path
         id="path16"
         style="fill:none;stroke:#59d957;stroke-width:2;stroke-linecap:butt;stroke-linejoin:miter;stroke-miterlimit:10;stroke-dasharray:none;stroke-opacity:1"
         d="m 84.5,436 c 0,0 -62,0 -62,0 -6,0 -12,6 -12,12 0,0 0,12 0,12 0,6 6,12 12,12 0,0 62,0 62,0 6,0 12,-6 12,-12 0,0 0,-12 0,-12 0,-6 -6,-12 -12,-12" /><text
         id="text20"
         style="font-variant:normal;font-weight:normal;font-size:9.99975586px;font-family:'DejaVu Sans';-inkscape-font-specification:DejaVuSans;writing-mode:lr-tb;fill:#000000;fill-opacity:1;fill-rule:nonzero;stroke:none"
         transform="translate(18.5,456.5)"><tspan
           id="tspan18"
           y="0"
           x="0 7.4998169 13.489671 17.23958 23.229433 28.479305 35.229141 41.228992 47.218849 50.208775 56.198627 61.438499 64.428429">Data_Analysis</tspan></text>
<path
         id="path22"
         style="fill:none;stroke:#d6d957;stroke-width:2;stroke-linecap:butt;stroke-linejoin:miter;stroke-miterlimit:10;stroke-dasharray:none;stroke-opacity:1"
         d="m 75.5,292 c 0,0 -44,0 -44,0 -6,0 -12,6 -12,12 0,0 0,12 0,12 0,6 6,12 12,12 0,0 44,0 44,0 6,0 12,-6 12,-12 0,0 0,-12 0,-12 0,-6 -6,-12 -12,-12" /><text
         id="text26"
         style="font-variant:normal;font-weight:normal;font-size:9.99975586px;font-family:'DejaVu Sans';-inkscape-font-specification:DejaVuSans;writing-mode:lr-tb;fill:#000000;fill-opacity:1;fill-rule:nonzero;stroke:none"
         transform="translate(27.5,312.5)"><tspan
           id="tspan24"
           y="0"
           x="0 5.239872 11.239726 14.229652 17.21958 23.219433 26.959343">cellpro</tspan></text>
<text
         id="text30"
         style="font-variant:normal;font-weight:normal;font-size:9.99975586px;font-family:'DejaVu Sans';-inkscape-font-specification:DejaVuSans;writing-mode:lr-tb;fill:#000000;fill-opacity:1;fill-rule:nonzero;stroke:none"
         transform="translate(60.459196,312.5)"><tspan
           id="tspan28"
           y="0"
           x="0">ﬁ</tspan></text>
<text
         id="text34"
         style="font-variant:normal;font-weight:normal;font-size:9.99975586px;font-family:'DejaVu Sans';-inkscape-font-specification:DejaVuSans;writing-mode:lr-tb;fill:#000000;fill-opacity:1;fill-rule:nonzero;stroke:none"
         transform="translate(66.44905,312.5)"><tspan
           id="tspan32"
           y="0"
           x="0 2.9899271 8.9897804">ler</tspan></text>
<path
         id="path36"
         style="fill:none;stroke:#c0c0c0;stroke-width:2;stroke-linecap:butt;stroke-linejoin:miter;stroke-miterlimit:10;stroke-dasharray:none;stroke-opacity:1"
         d="m 50.25,328.113 c -1.797,10.344 -3.844,23.825 -4.75,35.887 -1.199,15.957 -1.199,20.043 0,36 0.637,8.48 1.84,17.664 3.121,25.965" /><path
         id="path38"
         style="fill:#c0c0c0;fill-opacity:1;fill-rule:nonzero;stroke:#c0c0c0;stroke-width:2;stroke-linecap:butt;stroke-linejoin:miter;stroke-miterlimit:10;stroke-dasharray:none;stroke-opacity:1"
         d="M 52.082,425.453 50.25,435.887 45.176,426.59 Z" /><path
         id="path40"
         style="fill:none;stroke:#57d99a;stroke-width:2;stroke-linecap:butt;stroke-linejoin:miter;stroke-miterlimit:10;stroke-dasharray:none;stroke-opacity:1"
         d="m 96.5,364 c 0,0 -30,0 -30,0 -6,0 -12,6 -12,12 0,0 0,12 0,12 0,6 6,12 12,12 0,0 30,0 30,0 6,0 12,-6 12,-12 0,0 0,-12 0,-12 0,-6 -6,-12 -12,-12" /><text
         id="text44"
         style="font-variant:normal;font-weight:normal;font-size:9.99975586px;font-family:'DejaVu Sans';-inkscape-font-specification:DejaVuSans;writing-mode:lr-tb;fill:#000000;fill-opacity:1;fill-rule:nonzero;stroke:none"
         transform="translate(78,384.5)"><tspan
           id="tspan42"
           y="0"
           x="0">R</tspan></text>
<path
         id="path46"
         style="fill:none;stroke:#c0c0c0;stroke-width:2;stroke-linecap:butt;stroke-linejoin:miter;stroke-miterlimit:10;stroke-dasharray:none;stroke-opacity:1"
         d="m 60.422,328.305 c 3.152,7.883 6.957,17.39 10.461,26.148" /><path
         id="path48"
         style="fill:#c0c0c0;fill-opacity:1;fill-rule:nonzero;stroke:#c0c0c0;stroke-width:2;stroke-linecap:butt;stroke-linejoin:miter;stroke-miterlimit:10;stroke-dasharray:none;stroke-opacity:1"
         d="m 74.195,353.312 0.465,10.583 -6.965,-7.985 z" /><path
         id="path50"
         style="fill:none;stroke:#579ad9;stroke-width:2;stroke-linecap:butt;stroke-linejoin:miter;stroke-miterlimit:10;stroke-dasharray:none;stroke-opacity:1"
         d="m 91,220 c 0,0 -75,0 -75,0 -6,0 -12,6 -12,12 0,0 0,12 0,12 0,6 6,12 12,12 0,0 75,0 75,0 6,0 12,-6 12,-12 0,0 0,-12 0,-12 0,-6 -6,-12 -12,-12" /><text
         id="text54"
         style="font-variant:normal;font-weight:normal;font-size:9.99975586px;font-family:'DejaVu Sans';-inkscape-font-specification:DejaVuSans;writing-mode:lr-tb;fill:#000000;fill-opacity:1;fill-rule:nonzero;stroke:none"
         transform="translate(12,240.5)"><tspan
           id="tspan52"
           y="0"
           x="0 2.9899271 8.9797812 14.979634 20.969488 23.969416 29.219288 34.45916 40.449013 46.438866 52.428722 58.428574 62.178482 67.418358 70.408279 76.408134">label_conversion</tspan></text>
<path
         id="path56"
         style="fill:none;stroke:#c0c0c0;stroke-width:2;stroke-linecap:butt;stroke-linejoin:miter;stroke-miterlimit:10;stroke-dasharray:none;stroke-opacity:1"
         d="m 53.5,256.305 c 0,7.711 0,16.984 0,25.582" /><path
         id="path58"
         style="fill:#c0c0c0;fill-opacity:1;fill-rule:nonzero;stroke:#c0c0c0;stroke-width:2;stroke-linecap:butt;stroke-linejoin:miter;stroke-miterlimit:10;stroke-dasharray:none;stroke-opacity:1"
         d="m 57,281.895 -3.5,10 -3.5,-10 z" /><path
         id="path60"
         style="fill:none;stroke:#d99557;stroke-width:2;stroke-linecap:butt;stroke-linejoin:miter;stroke-miterlimit:10;stroke-dasharray:none;stroke-opacity:1"
         d="m 99,148 c 0,0 -33,0 -33,0 -6,0 -12,6 -12,12 0,0 0,12 0,12 0,6 6,12 12,12 0,0 33,0 33,0 6,0 12,-6 12,-12 0,0 0,-12 0,-12 0,-6 -6,-12 -12,-12" /><text
         id="text64"
         style="font-variant:normal;font-weight:normal;font-size:9.99975586px;font-family:'DejaVu Sans';-inkscape-font-specification:DejaVuSans;writing-mode:lr-tb;fill:#000000;fill-opacity:1;fill-rule:nonzero;stroke:none"
         transform="translate(62,168.5)"><tspan
           id="tspan62"
           y="0"
           x="0 5.239872 11.239726 14.229652 17.21958 23.219433 29.209288 34.449158">cellpose</tspan></text>
<path
         id="path66"
         style="fill:none;stroke:#c0c0c0;stroke-width:2;stroke-linecap:butt;stroke-linejoin:miter;stroke-miterlimit:10;stroke-dasharray:none;stroke-opacity:1"
         d="m 75.332,184.305 c -3.266,7.883 -7.207,17.39 -10.836,26.148" /><path
         id="path68"
         style="fill:#c0c0c0;fill-opacity:1;fill-rule:nonzero;stroke:#c0c0c0;stroke-width:2;stroke-linecap:butt;stroke-linejoin:miter;stroke-miterlimit:10;stroke-dasharray:none;stroke-opacity:1"
         d="m 67.648,211.996 -7.062,7.899 0.594,-10.579 z" /><path
         id="path70"
         style="fill:none;stroke:#57d9d9;stroke-width:2;stroke-linecap:butt;stroke-linejoin:miter;stroke-miterlimit:10;stroke-dasharray:none;stroke-opacity:1"
         d="m 81.5,76 c 0,0 -56,0 -56,0 -6,0 -12,6 -12,12 0,0 0,12 0,12 0,6 6,12 12,12 0,0 56,0 56,0 6,0 12,-6 12,-12 0,0 0,-12 0,-12 0,-6 -6,-12 -12,-12" /><text
         id="text74"
         style="font-variant:normal;font-weight:normal;font-size:9.99975586px;font-family:'DejaVu Sans';-inkscape-font-specification:DejaVuSans;writing-mode:lr-tb;fill:#000000;fill-opacity:1;fill-rule:nonzero;stroke:none"
         transform="translate(21.5,96.5)"><tspan
           id="tspan72"
           y="0"
           x="0 3.7499084 9.7497625 14.989635 17.979561 20.969488 26.20936 32.209213 37.459087 42.698959 47.938831 53.928684 56.928612">reslice_scale</tspan></text>
<path
         id="path76"
         style="fill:none;stroke:#c0c0c0;stroke-width:2;stroke-linecap:butt;stroke-linejoin:miter;stroke-miterlimit:10;stroke-dasharray:none;stroke-opacity:1"
         d="M 49.848,112.094 C 47.824,122.43 45.52,135.91 44.5,148 c -1.344,15.945 -1.344,20.055 0,36 0.715,8.5 2.07,17.688 3.512,25.988" /><path
         id="path78"
         style="fill:#c0c0c0;fill-opacity:1;fill-rule:nonzero;stroke:#c0c0c0;stroke-width:2;stroke-linecap:butt;stroke-linejoin:miter;stroke-miterlimit:10;stroke-dasharray:none;stroke-opacity:1"
         d="m 51.469,209.438 -1.621,10.468 -5.262,-9.195 z" /><path
         id="path80"
         style="fill:none;stroke:#c0c0c0;stroke-width:2;stroke-linecap:butt;stroke-linejoin:miter;stroke-miterlimit:10;stroke-dasharray:none;stroke-opacity:1"
         d="m 60.668,112.305 c 3.266,7.883 7.207,17.39 10.836,26.148" /><path
         id="path82"
         style="fill:#c0c0c0;fill-opacity:1;fill-rule:nonzero;stroke:#c0c0c0;stroke-width:2;stroke-linecap:butt;stroke-linejoin:miter;stroke-miterlimit:10;stroke-dasharray:none;stroke-opacity:1"
         d="m 74.82,137.316 0.594,10.579 -7.062,-7.899 z" /><path
         id="path84"
         style="fill:none;stroke:#d95757;stroke-width:2;stroke-linecap:butt;stroke-linejoin:miter;stroke-miterlimit:10;stroke-dasharray:none;stroke-opacity:1"
         d="m 84.5,4 c 0,0 -62,0 -62,0 -6,0 -12,6 -12,12 0,0 0,12 0,12 0,6 6,12 12,12 0,0 62,0 62,0 6,0 12,-6 12,-12 0,0 0,-12 0,-12 0,-6 -6,-12 -12,-12" /><text
         id="text88"
         style="font-variant:normal;font-weight:normal;font-size:9.99975586px;font-family:'DejaVu Sans';-inkscape-font-specification:DejaVuSans;writing-mode:lr-tb;fill:#000000;fill-opacity:1;fill-rule:nonzero;stroke:none"
         transform="translate(18.5,24.5)"><tspan
           id="tspan86"
           y="0"
           x="0 5.239872 11.229726 14.219653 17.21958 20.969488 26.21936 31.459232 37.449085 43.438942 49.428795 55.428646 61.418503 64.418427">split_channels</tspan></text>
<path
         id="path90"
         style="fill:none;stroke:#c0c0c0;stroke-width:2;stroke-linecap:butt;stroke-linejoin:miter;stroke-miterlimit:10;stroke-dasharray:none;stroke-opacity:1"
         d="m 53.5,40.305 c 0,7.711 0,16.984 0,25.582" /><path
         id="path92"
         style="fill:#c0c0c0;fill-opacity:1;fill-rule:nonzero;stroke:#c0c0c0;stroke-width:2;stroke-linecap:butt;stroke-linejoin:miter;stroke-miterlimit:10;stroke-dasharray:none;stroke-opacity:1"
         d="m 57,65.895 -3.5,10 -3.5,-10 z" /><path
         id="path94"
         style="fill:none;stroke:#c0c0c0;stroke-width:2;stroke-linecap:butt;stroke-linejoin:miter;stroke-miterlimit:10;stroke-dasharray:none;stroke-opacity:1"
         d="m 74.578,400.305 c -3.152,7.883 -6.957,17.39 -10.461,26.148" /><path
         id="path96"
         style="fill:#c0c0c0;fill-opacity:1;fill-rule:nonzero;stroke:#c0c0c0;stroke-width:2;stroke-linecap:butt;stroke-linejoin:miter;stroke-miterlimit:10;stroke-dasharray:none;stroke-opacity:1"
         d="m 67.305,427.91 -6.965,7.985 0.465,-10.583 z" /></g></g></svg>