<?xml version="1.0" encoding="UTF-8" standalone="no"?>
<svg
   version="1.1"
   class="marks"
   width="114"
   height="319"
   viewBox="0 0 114 319"
   id="svg26"
   sodipodi:docname="dag.svg"
   inkscape:version="1.3 (0e150ed6c4, 2023-07-21)"
   xmlns:inkscape="http://www.inkscape.org/namespaces/inkscape"
   xmlns:sodipodi="http://sodipodi.sourceforge.net/DTD/sodipodi-0.dtd"
   xmlns="http://www.w3.org/2000/svg"
   xmlns:svg="http://www.w3.org/2000/svg">
  <defs
     id="defs26" />
  <sodipodi:namedview
     id="namedview26"
     pagecolor="#ffffff"
     bordercolor="#000000"
     borderopacity="0.25"
     inkscape:showpageshadow="2"
     inkscape:pageopacity="0.0"
     inkscape:pagecheckerboard="0"
     inkscape:deskcolor="#d1d1d1"
     inkscape:zoom="5.6708464"
     inkscape:cx="56.957988"
     inkscape:cy="89.051962"
     inkscape:window-width="2948"
     inkscape:window-height="1821"
     inkscape:window-x="989"
     inkscape:window-y="74"
     inkscape:window-maximized="0"
     inkscape:current-layer="g25" />
  <g
     fill="none"
     stroke-miterlimit="10"
     transform="translate(87,14)"
     id="g26">
    <g
       class="mark-group role-frame root"
       role="graphics-object"
       aria-roledescription="group mark container"
       id="g25">
      <path
         class="background"
         aria-hidden="true"
         d="M 0,0 V 0 Z"
         id="path1" />
      <g
         id="g23">
        <g
           class="mark-path role-mark"
           role="graphics-symbol"
           aria-roledescription="path mark container"
           id="g7">
          <path
             d="M 10,0.0080168 C 10,25.020302 10,25.020302 10,50.032586"
             stroke="#cccccc"
             stroke-width="1"
             id="path2" />
          <path
             d="M 10,50.032586 C 10,75.016293 10,75.016293 10,100"
             stroke="#cccccc"
             stroke-width="1"
             id="path3" />
          <path
             d="m 10,100 c 0,24.98321 0,24.98321 0,49.96642"
             stroke="#cccccc"
             stroke-width="1"
             id="path4" />
          <path
             d="M 10,149.96642 C 10,175 10,175 10,200.03358"
             stroke="#cccccc"
             stroke-width="1"
             id="path5" />
          <path
             d="m 10,200.03358 c 0,24.98371 0,24.98371 0,49.96742"
             stroke="#cccccc"
             stroke-width="1"
             id="path6" />
          <path
             d="m 10,250.001 c 0,24.97871 0,24.97871 0,49.95741"
             stroke="#cccccc"
             stroke-width="1"
             id="path7" />
        </g>
        <g
           class="mark-path role-mark"
           role="graphics-symbol"
           aria-roledescription="path mark container"
           id="g9">
          <path
             d="m 10,50.032586 c 19.986767,19.986767 19.986767,79.947064 0,99.933834"
             stroke="#cccccc"
             stroke-width="1"
             id="path8" />
          <path
             d="m 10,200.03358 c 19.984967,19.98497 19.984967,79.93987 0,99.92483"
             stroke="#cccccc"
             stroke-width="1"
             id="path9" />
        </g>
        <g
           class="mark-symbol role-mark nodes"
           role="graphics-symbol"
           aria-roledescription="symbol mark container"
           id="g16">
          <path
             transform="translate(10,0.0080168)"
             d="M 4.1833001,0 A 4.1833001,4.1833001 0 1 1 -4.1833001,0 4.1833001,4.1833001 0 1 1 4.1833001,0"
             fill="#3182bd"
             id="path10" />
          <path
             transform="translate(10,50.032586)"
             d="M 4.1833001,0 A 4.1833001,4.1833001 0 1 1 -4.1833001,0 4.1833001,4.1833001 0 1 1 4.1833001,0"
             fill="#6baed6"
             id="path11" />
          <path
             transform="translate(10,100)"
             d="M 4.1833001,0 A 4.1833001,4.1833001 0 1 1 -4.1833001,0 4.1833001,4.1833001 0 1 1 4.1833001,0"
             fill="#9ecae1"
             id="path12" />
          <path
             transform="translate(10,149.96642)"
             d="M 4.1833001,0 A 4.1833001,4.1833001 0 1 1 -4.1833001,0 4.1833001,4.1833001 0 1 1 4.1833001,0"
             fill="#c6dbef"
             id="path13"
             style="fill:#636e78;fill-opacity:1" />
          <path
             transform="translate(10,200.03358)"
             d="M 4.1833001,0 A 4.1833001,4.1833001 0 1 1 -4.1833001,0 4.1833001,4.1833001 0 1 1 4.1833001,0"
             fill="#e6550d"
             id="path14" />
          <path
             transform="translate(10,250.001)"
             d="M 4.1833001,0 A 4.1833001,4.1833001 0 1 1 -4.1833001,0 4.1833001,4.1833001 0 1 1 4.1833001,0"
             fill="#fd8d3c"
             id="path15" />
          <path
             transform="translate(10,299.95841)"
             d="M 4.1833001,0 A 4.1833001,4.1833001 0 1 1 -4.1833001,0 4.1833001,4.1833001 0 1 1 4.1833001,0"
             fill="#fdae6b"
             id="path16" />
        </g>
        <g
           class="mark-text role-mark labels"
           role="graphics-object"
           aria-roledescription="text mark container"
           id="g22">
          <text
             text-anchor="end"
             transform="translate(5,-5)"
             font-family="sans-serif"
             font-size="11px"
             font-weight="normal"
             fill="#000000"
             id="text16"
             style="fill:#3183bd;fill-opacity:1">split_channels</text>
          <text
             text-anchor="end"
             transform="translate(5,45)"
             font-family="sans-serif"
             font-size="11px"
             font-weight="normal"
             fill="#000000"
             id="text17"
             style="fill:#6bafd6;fill-opacity:1">reslice_scale</text>
          <text
             text-anchor="end"
             transform="translate(5,95)"
             font-family="sans-serif"
             font-size="11px"
             font-weight="normal"
             fill="#000000"
             id="text18"
             style="fill:#7ca0b2;fill-opacity:1">cellpose</text>
          <text
             text-anchor="end"
             transform="translate(5,145)"
             font-family="sans-serif"
             font-size="11px"
             font-weight="normal"
             fill="#000000"
             id="text19"
             style="fill:#636e78;fill-opacity:1">label_conversion</text>
          <text
             text-anchor="end"
             transform="translate(5,195)"
             font-family="sans-serif"
             font-size="11px"
             font-weight="normal"
             fill="#000000"
             id="text20"
             style="fill:#e5550e;fill-opacity:1">cellprofiler</text>
          <text
             text-anchor="end"
             transform="translate(5,245)"
             font-family="sans-serif"
             font-size="11px"
             font-weight="normal"
             fill="#000000"
             id="text21"
             style="fill:#fc8c3d;fill-opacity:1">R</text>
          <text
             text-anchor="end"
             transform="translate(5,295)"
             font-family="sans-serif"
             font-size="11px"
             font-weight="normal"
             fill="#000000"
             id="text22"
             style="fill:#fcaf6a;fill-opacity:1">Data_Analysis</text>
        </g>
      </g>
      <path
         class="foreground"
         aria-hidden="true"
         d=""
         display="none"
         id="path23" />
    </g>
  </g>
</svg>
