<svg xmlns="http://www.w3.org/2000/svg" xmlns:xlink="http://www.w3.org/1999/xlink" version="1.1" class="marks" width="104" height="269" viewBox="0 0 104 269"><g fill="none" stroke-miterlimit="10" transform="translate(77,14)"><g class="mark-group role-frame root" role="graphics-object" aria-roledescription="group mark container"><g transform="translate(0,0)"><path class="background" aria-hidden="true" d="M0,0h0v0h0Z"/><g><g class="mark-path role-mark" role="graphics-symbol" aria-roledescription="path mark container"><path transform="translate(0,0)" d="M9.999999999999982,0.00801680000000001C9.999999999999982,25.02030155105 9.999999999911465,25.02030155105 9.999999999911465,50.0325863021" stroke="#ccc" stroke-width="1"/><path transform="translate(0,0)" d="M9.999999999911465,50.0325863021C9.999999999911465,75.01629302433776 10,75.01629302433776 10,99.99999974657553" stroke="#ccc" stroke-width="1"/><path transform="translate(0,0)" d="M10,99.99999974657553C10,124.9832061732561 10.000000000088537,124.9832061732561 10.000000000088537,149.96641259993666" stroke="#ccc" stroke-width="1"/><path transform="translate(0,0)" d="M10.000000000088537,149.96641259993666C10.000000000088537,174.98370327683702 10.000000000000007,174.98370327683702 10.000000000000007,200.00099395373738" stroke="#ccc" stroke-width="1"/><path transform="translate(0,0)" d="M10.000000000000007,200.00099395373738C10.000000000000007,224.99649597451915 10,224.99649597451915 10,249.99199799530092" stroke="#ccc" stroke-width="1"/></g><g class="mark-path role-mark" role="graphics-symbol" aria-roledescription="path mark container"><path transform="translate(0,0)" d="M9.999999999911465,50.0325863021C29.986765259514215,70.01935156163192 29.98676525962046,129.9796473403339 10.000000000088537,149.96641259993666" stroke="#ccc" stroke-width="1"/></g><g class="mark-symbol role-mark nodes" role="graphics-symbol" aria-roledescription="symbol mark container"><path transform="translate(9.999999999999982,0.00801680000000001)" d="M4.183300132670378,0A4.183300132670378,4.183300132670378,0,1,1,-4.183300132670378,0A4.183300132670378,4.183300132670378,0,1,1,4.183300132670378,0" fill="#3182bd"/><path transform="translate(9.999999999911465,50.0325863021)" d="M4.183300132670378,0A4.183300132670378,4.183300132670378,0,1,1,-4.183300132670378,0A4.183300132670378,4.183300132670378,0,1,1,4.183300132670378,0" fill="#6baed6"/><path transform="translate(10,99.99999974657553)" d="M4.183300132670378,0A4.183300132670378,4.183300132670378,0,1,1,-4.183300132670378,0A4.183300132670378,4.183300132670378,0,1,1,4.183300132670378,0" fill="#9ecae1"/><path transform="translate(10.000000000088537,149.96641259993666)" d="M4.183300132670378,0A4.183300132670378,4.183300132670378,0,1,1,-4.183300132670378,0A4.183300132670378,4.183300132670378,0,1,1,4.183300132670378,0" fill="#c6dbef"/><path transform="translate(10.000000000000007,200.00099395373738)" d="M4.183300132670378,0A4.183300132670378,4.183300132670378,0,1,1,-4.183300132670378,0A4.183300132670378,4.183300132670378,0,1,1,4.183300132670378,0" fill="#e6550d"/><path transform="translate(10,249.99199799530092)" d="M4.183300132670378,0A4.183300132670378,4.183300132670378,0,1,1,-4.183300132670378,0A4.183300132670378,4.183300132670378,0,1,1,4.183300132670378,0" fill="#fd8d3c"/></g><g class="mark-text role-mark labels" role="graphics-object" aria-roledescription="text mark container"><text text-anchor="end" transform="translate(5,-5)" font-family="sans-serif" font-size="11px" font-weight="normal" fill="black">split_channels</text><text text-anchor="end" transform="translate(5,45)" font-family="sans-serif" font-size="11px" font-weight="normal" fill="black">reslice_scale</text><text text-anchor="end" transform="translate(5,95)" font-family="sans-serif" font-size="11px" font-weight="normal" fill="black">cellpose</text><text text-anchor="end" transform="translate(5,145)" font-family="sans-serif" font-size="11px" font-weight="normal" fill="black">label_conversion</text><text text-anchor="end" transform="translate(5,195)" font-family="sans-serif" font-size="11px" font-weight="normal" fill="black">cellprofiler</text><text text-anchor="end" transform="translate(5,245)" font-family="sans-serif" font-size="11px" font-weight="normal" fill="black">Data_Analysis</text></g></g><path class="foreground" aria-hidden="true" d="" display="none"/></g></g></g></svg>