<svg xmlns="http://www.w3.org/2000/svg" xmlns:xlink="http://www.w3.org/1999/xlink" version="1.1" class="marks" width="114" height="319" viewBox="0 0 114 319"><g fill="none" stroke-miterlimit="10" transform="translate(87,14)"><g class="mark-group role-frame root" role="graphics-object" aria-roledescription="group mark container"><g transform="translate(0,0)"><path class="background" aria-hidden="true" d="M0,0h0v0h0Z"/><g><g class="mark-path role-mark" role="graphics-symbol" aria-roledescription="path mark container"><path transform="translate(0,0)" d="M9.999999999999982,0.00801680000000001C9.999999999999982,25.02030155105 9.999999999911465,25.02030155105 9.999999999911465,50.0325863021" stroke="#ccc" stroke-width="1"/><path transform="translate(0,0)" d="M9.999999999911465,50.0325863021C9.999999999911465,75.01629302433776 10,75.01629302433776 10,99.99999974657553" stroke="#ccc" stroke-width="1"/><path transform="translate(0,0)" d="M10,99.99999974657553C10,124.98320932325609 10.000000000088534,124.98320932325609 10.000000000088534,149.96641889993666" stroke="#ccc" stroke-width="1"/><path transform="translate(0,0)" d="M10.000000000088534,149.96641889993666C10.000000000088534,175.0000000023308 9.999999999956088,175.0000000023308 9.999999999956088,200.03358110472496" stroke="#ccc" stroke-width="1"/><path transform="translate(0,0)" d="M9.999999999956088,200.03358110472496C9.999999999956088,225.01728962476946 10.000000000000002,225.01728962476946 10.000000000000002,250.00099814481396" stroke="#ccc" stroke-width="1"/><path transform="translate(0,0)" d="M10.000000000000002,250.00099814481396C10.000000000000002,274.97970647425586 10.000000000043917,274.97970647425586 10.000000000043917,299.95841480369774" stroke="#ccc" stroke-width="1"/></g><g class="mark-path role-mark" role="graphics-symbol" aria-roledescription="path mark container"><path transform="translate(0,0)" d="M9.999999999911465,50.0325863021C29.986766519514212,70.01935282163191 29.986766519620453,129.9796523803339 10.000000000088534,149.96641889993666" stroke="#ccc" stroke-width="1"/><path transform="translate(0,0)" d="M9.999999999956088,200.03358110472496C29.98496673976821,220.01854784450194 29.984966739820912,279.9734480638856 10.000000000043917,299.95841480369774" stroke="#ccc" stroke-width="1"/></g><g class="mark-symbol role-mark nodes" role="graphics-symbol" aria-roledescription="symbol mark container"><path transform="translate(9.999999999999982,0.00801680000000001)" d="M4.183300132670378,0A4.183300132670378,4.183300132670378,0,1,1,-4.183300132670378,0A4.183300132670378,4.183300132670378,0,1,1,4.183300132670378,0" fill="#3182bd"/><path transform="translate(9.999999999911465,50.0325863021)" d="M4.183300132670378,0A4.183300132670378,4.183300132670378,0,1,1,-4.183300132670378,0A4.183300132670378,4.183300132670378,0,1,1,4.183300132670378,0" fill="#6baed6"/><path transform="translate(10,99.99999974657553)" d="M4.183300132670378,0A4.183300132670378,4.183300132670378,0,1,1,-4.183300132670378,0A4.183300132670378,4.183300132670378,0,1,1,4.183300132670378,0" fill="#9ecae1"/><path transform="translate(10.000000000088534,149.96641889993666)" d="M4.183300132670378,0A4.183300132670378,4.183300132670378,0,1,1,-4.183300132670378,0A4.183300132670378,4.183300132670378,0,1,1,4.183300132670378,0" fill="#c6dbef"/><path transform="translate(9.999999999956088,200.03358110472496)" d="M4.183300132670378,0A4.183300132670378,4.183300132670378,0,1,1,-4.183300132670378,0A4.183300132670378,4.183300132670378,0,1,1,4.183300132670378,0" fill="#e6550d"/><path transform="translate(10.000000000000002,250.00099814481396)" d="M4.183300132670378,0A4.183300132670378,4.183300132670378,0,1,1,-4.183300132670378,0A4.183300132670378,4.183300132670378,0,1,1,4.183300132670378,0" fill="#fd8d3c"/><path transform="translate(10.000000000043917,299.95841480369774)" d="M4.183300132670378,0A4.183300132670378,4.183300132670378,0,1,1,-4.183300132670378,0A4.183300132670378,4.183300132670378,0,1,1,4.183300132670378,0" fill="#fdae6b"/></g><g class="mark-text role-mark labels" role="graphics-object" aria-roledescription="text mark container"><text text-anchor="end" transform="translate(5,-5)" font-family="sans-serif" font-size="11px" font-weight="normal" fill="black">split_channels</text><text text-anchor="end" transform="translate(5,45)" font-family="sans-serif" font-size="11px" font-weight="normal" fill="black">reslice_scale</text><text text-anchor="end" transform="translate(5,95)" font-family="sans-serif" font-size="11px" font-weight="normal" fill="black">cellpose</text><text text-anchor="end" transform="translate(5,145)" font-family="sans-serif" font-size="11px" font-weight="normal" fill="black">label_conversion</text><text text-anchor="end" transform="translate(5,195)" font-family="sans-serif" font-size="11px" font-weight="normal" fill="black">cellprofiler</text><text text-anchor="end" transform="translate(5,245)" font-family="sans-serif" font-size="11px" font-weight="normal" fill="black">R</text><text text-anchor="end" transform="translate(5,295)" font-family="sans-serif" font-size="11px" font-weight="normal" fill="black">Data_Analysis</text></g></g><path class="foreground" aria-hidden="true" d="" display="none"/></g></g></g></svg>